<svg width="18" height="19" viewBox="0 0 18 19" fill="none" xmlns="http://www.w3.org/2000/svg">
<g clip-path="url(#clip0_1_1146)">
<path d="M9 18.1533C13.9706 18.1533 18 14.1239 18 9.15332C18 4.18276 13.9706 0.15332 9 0.15332C4.02944 0.15332 0 4.18276 0 9.15332C0 14.1239 4.02944 18.1533 9 18.1533Z" fill="#F0F0F0"/>
<path d="M8.60871 9.15332H18C18 8.341 17.8917 7.55406 17.69 6.80548H8.60871V9.15332Z" fill="#D80027"/>
<path d="M8.60871 4.45767H16.679C16.1281 3.55866 15.4237 2.76402 14.6024 2.10983H8.60871V4.45767Z" fill="#D80027"/>
<path d="M9 18.1533C11.1181 18.1533 13.065 17.4212 14.6024 16.1968H3.39764C4.93503 17.4212 6.88187 18.1533 9 18.1533Z" fill="#D80027"/>
<path d="M1.32096 13.849H16.679C17.1213 13.1272 17.4644 12.3383 17.69 11.5011H0.310043C0.535641 12.3383 0.878661 13.1272 1.32096 13.849Z" fill="#D80027"/>
<path d="M4.16897 1.5588H4.98913L4.22624 2.11304L4.51765 3.00984L3.75479 2.4556L2.99194 3.00984L3.24366 2.2351C2.57196 2.79461 1.98323 3.45013 1.49808 4.18054H1.76087L1.27526 4.53333C1.1996 4.65954 1.12704 4.78776 1.0575 4.91787L1.28939 5.63158L0.856758 5.31725C0.749215 5.54509 0.650848 5.77807 0.56243 6.01591L0.81791 6.80228H1.76087L0.99798 7.35652L1.28939 8.25332L0.526535 7.69908L0.0695742 8.0311C0.0238359 8.39876 0 8.77325 0 9.15332H9C9 4.18279 9 3.5968 9 0.15332C7.22208 0.15332 5.56471 0.669062 4.16897 1.5588ZM4.51765 8.25332L3.75479 7.69908L2.99194 8.25332L3.28335 7.35652L2.52046 6.80228H3.46342L3.75479 5.90548L4.04617 6.80228H4.98913L4.22624 7.35652L4.51765 8.25332ZM4.22624 4.73478L4.51765 5.63158L3.75479 5.07734L2.99194 5.63158L3.28335 4.73478L2.52046 4.18054H3.46342L3.75479 3.28374L4.04617 4.18054H4.98913L4.22624 4.73478ZM7.74591 8.25332L6.98305 7.69908L6.22019 8.25332L6.51161 7.35652L5.74871 6.80228H6.69168L6.98305 5.90548L7.27443 6.80228H8.21739L7.4545 7.35652L7.74591 8.25332ZM7.4545 4.73478L7.74591 5.63158L6.98305 5.07734L6.22019 5.63158L6.51161 4.73478L5.74871 4.18054H6.69168L6.98305 3.28374L7.27443 4.18054H8.21739L7.4545 4.73478ZM7.4545 2.11304L7.74591 3.00984L6.98305 2.4556L6.22019 3.00984L6.51161 2.11304L5.74871 1.5588H6.69168L6.98305 0.661996L7.27443 1.5588H8.21739L7.4545 2.11304Z" fill="#0052B4"/>
</g>
<defs>
<clipPath id="clip0_1_1146">
<rect width="18" height="18" fill="white" transform="translate(0 0.15332)"/>
</clipPath>
</defs>
</svg>
